<svg id="visual" viewBox="0 0 900 600" width="900" height="600" xmlns="http://www.w3.org/2000/svg" xmlns:xlink="http://www.w3.org/1999/xlink" version="1.1"><path d="M0 443L16.7 442C33.3 441 66.7 439 100 442.2C133.3 445.3 166.7 453.7 200 458C233.3 462.3 266.7 462.7 300 452.3C333.3 442 366.7 421 400 419.2C433.3 417.3 466.7 434.7 500 447.3C533.3 460 566.7 468 600 460.7C633.3 453.3 666.7 430.7 700 423.5C733.3 416.3 766.7 424.7 800 424.5C833.3 424.3 866.7 415.7 883.3 411.3L900 407L900 601L883.3 601C866.7 601 833.3 601 800 601C766.7 601 733.3 601 700 601C666.7 601 633.3 601 600 601C566.7 601 533.3 601 500 601C466.7 601 433.3 601 400 601C366.7 601 333.3 601 300 601C266.7 601 233.3 601 200 601C166.7 601 133.3 601 100 601C66.7 601 33.3 601 16.7 601L0 601Z" fill="#12192c"></path><path d="M0 455L16.7 460C33.3 465 66.7 475 100 480.2C133.3 485.3 166.7 485.7 200 479.3C233.3 473 266.7 460 300 459.3C333.3 458.7 366.7 470.3 400 477.8C433.3 485.3 466.7 488.7 500 489.3C533.3 490 566.7 488 600 480.3C633.3 472.7 666.7 459.3 700 451.2C733.3 443 766.7 440 800 446C833.3 452 866.7 467 883.3 474.5L900 482L900 601L883.3 601C866.7 601 833.3 601 800 601C766.7 601 733.3 601 700 601C666.7 601 633.3 601 600 601C566.7 601 533.3 601 500 601C466.7 601 433.3 601 400 601C366.7 601 333.3 601 300 601C266.7 601 233.3 601 200 601C166.7 601 133.3 601 100 601C66.7 601 33.3 601 16.7 601L0 601Z" fill="#3e284e"></path><path d="M0 514L16.7 508.2C33.3 502.3 66.7 490.7 100 486.5C133.3 482.3 166.7 485.7 200 485.2C233.3 484.7 266.7 480.3 300 481C333.3 481.7 366.7 487.3 400 495.5C433.3 503.7 466.7 514.3 500 516.8C533.3 519.3 566.7 513.7 600 508.8C633.3 504 666.7 500 700 498.7C733.3 497.3 766.7 498.7 800 496.3C833.3 494 866.7 488 883.3 485L900 482L900 601L883.3 601C866.7 601 833.3 601 800 601C766.7 601 733.3 601 700 601C666.7 601 633.3 601 600 601C566.7 601 533.3 601 500 601C466.7 601 433.3 601 400 601C366.7 601 333.3 601 300 601C266.7 601 233.3 601 200 601C166.7 601 133.3 601 100 601C66.7 601 33.3 601 16.7 601L0 601Z" fill="#7b2f5d"></path><path d="M0 554L16.7 549.5C33.3 545 66.7 536 100 529.7C133.3 523.3 166.7 519.7 200 518.5C233.3 517.3 266.7 518.7 300 523.8C333.3 529 366.7 538 400 536.8C433.3 535.7 466.7 524.3 500 520C533.3 515.7 566.7 518.3 600 520.5C633.3 522.7 666.7 524.3 700 529.7C733.3 535 766.7 544 800 540.7C833.3 537.3 866.7 521.7 883.3 513.8L900 506L900 601L883.3 601C866.7 601 833.3 601 800 601C766.7 601 733.3 601 700 601C666.7 601 633.3 601 600 601C566.7 601 533.3 601 500 601C466.7 601 433.3 601 400 601C366.7 601 333.3 601 300 601C266.7 601 233.3 601 200 601C166.7 601 133.3 601 100 601C66.7 601 33.3 601 16.7 601L0 601Z" fill="#b43953"></path><path d="M0 570L16.7 568.8C33.3 567.7 66.7 565.3 100 564.8C133.3 564.3 166.7 565.7 200 563.2C233.3 560.7 266.7 554.3 300 551.7C333.3 549 366.7 550 400 551.2C433.3 552.3 466.7 553.7 500 552.8C533.3 552 566.7 549 600 547.7C633.3 546.3 666.7 546.7 700 551.7C733.3 556.7 766.7 566.3 800 570.7C833.3 575 866.7 574 883.3 573.5L900 573L900 601L883.3 601C866.7 601 833.3 601 800 601C766.7 601 733.3 601 700 601C666.7 601 633.3 601 600 601C566.7 601 533.3 601 500 601C466.7 601 433.3 601 400 601C366.7 601 333.3 601 300 601C266.7 601 233.3 601 200 601C166.7 601 133.3 601 100 601C66.7 601 33.3 601 16.7 601L0 601Z" fill="#d95b35"></path></svg>