<svg id="visual" viewBox="0 0 960 540" width="960" height="540" xmlns="http://www.w3.org/2000/svg" xmlns:xlink="http://www.w3.org/1999/xlink" version="1.1"><path d="M0 356L16 354.3C32 352.7 64 349.3 96 349.3C128 349.3 160 352.7 192 349.7C224 346.7 256 337.3 288 338C320 338.7 352 349.3 384 353.2C416 357 448 354 480 353C512 352 544 353 576 355C608 357 640 360 672 353.3C704 346.7 736 330.3 768 330.2C800 330 832 346 864 349.8C896 353.7 928 345.3 944 341.2L960 337L960 541L944 541C928 541 896 541 864 541C832 541 800 541 768 541C736 541 704 541 672 541C640 541 608 541 576 541C544 541 512 541 480 541C448 541 416 541 384 541C352 541 320 541 288 541C256 541 224 541 192 541C160 541 128 541 96 541C64 541 32 541 16 541L0 541Z" fill="#12192c"></path><path d="M0 395L16 388.2C32 381.3 64 367.7 96 363.7C128 359.7 160 365.3 192 365.5C224 365.7 256 360.3 288 366C320 371.7 352 388.3 384 391C416 393.7 448 382.3 480 379.2C512 376 544 381 576 380.7C608 380.3 640 374.7 672 374.3C704 374 736 379 768 382.3C800 385.7 832 387.3 864 389.8C896 392.3 928 395.7 944 397.3L960 399L960 541L944 541C928 541 896 541 864 541C832 541 800 541 768 541C736 541 704 541 672 541C640 541 608 541 576 541C544 541 512 541 480 541C448 541 416 541 384 541C352 541 320 541 288 541C256 541 224 541 192 541C160 541 128 541 96 541C64 541 32 541 16 541L0 541Z" fill="#3e284e"></path><path d="M0 404L16 404.3C32 404.7 64 405.3 96 404.2C128 403 160 400 192 399.8C224 399.7 256 402.3 288 407.3C320 412.3 352 419.7 384 423.2C416 426.7 448 426.3 480 428.7C512 431 544 436 576 431.5C608 427 640 413 672 405.7C704 398.3 736 397.7 768 399.8C800 402 832 407 864 411.8C896 416.7 928 421.3 944 423.7L960 426L960 541L944 541C928 541 896 541 864 541C832 541 800 541 768 541C736 541 704 541 672 541C640 541 608 541 576 541C544 541 512 541 480 541C448 541 416 541 384 541C352 541 320 541 288 541C256 541 224 541 192 541C160 541 128 541 96 541C64 541 32 541 16 541L0 541Z" fill="#7b2f5d"></path><path d="M0 470L16 466.2C32 462.3 64 454.7 96 455.3C128 456 160 465 192 463.2C224 461.3 256 448.7 288 446.8C320 445 352 454 384 458.7C416 463.3 448 463.7 480 464C512 464.3 544 464.7 576 463.7C608 462.7 640 460.3 672 461C704 461.7 736 465.3 768 462C800 458.7 832 448.3 864 445.3C896 442.3 928 446.7 944 448.8L960 451L960 541L944 541C928 541 896 541 864 541C832 541 800 541 768 541C736 541 704 541 672 541C640 541 608 541 576 541C544 541 512 541 480 541C448 541 416 541 384 541C352 541 320 541 288 541C256 541 224 541 192 541C160 541 128 541 96 541C64 541 32 541 16 541L0 541Z" fill="#b43953"></path><path d="M0 478L16 477.7C32 477.3 64 476.7 96 482.2C128 487.7 160 499.3 192 503.7C224 508 256 505 288 500.5C320 496 352 490 384 488.2C416 486.3 448 488.7 480 491C512 493.3 544 495.7 576 497.7C608 499.7 640 501.3 672 501.3C704 501.3 736 499.7 768 500.2C800 500.7 832 503.3 864 503.5C896 503.7 928 501.3 944 500.2L960 499L960 541L944 541C928 541 896 541 864 541C832 541 800 541 768 541C736 541 704 541 672 541C640 541 608 541 576 541C544 541 512 541 480 541C448 541 416 541 384 541C352 541 320 541 288 541C256 541 224 541 192 541C160 541 128 541 96 541C64 541 32 541 16 541L0 541Z" fill="#d95b35"></path></svg>