<svg id="visual" viewBox="0 0 960 540" width="960" height="540" xmlns="http://www.w3.org/2000/svg" xmlns:xlink="http://www.w3.org/1999/xlink" version="1.1"><rect x="0" y="0" width="960" height="540" fill="#12192c"></rect><path d="M0 415L20 414.8C40 414.7 80 414.3 120 418.2C160 422 200 430 240 429.2C280 428.3 320 418.7 360 415.7C400 412.7 440 416.3 480 424.3C520 432.3 560 444.7 600 447.5C640 450.3 680 443.7 720 437.5C760 431.3 800 425.7 840 424.2C880 422.7 920 425.3 940 426.7L960 428L960 541L940 541C920 541 880 541 840 541C800 541 760 541 720 541C680 541 640 541 600 541C560 541 520 541 480 541C440 541 400 541 360 541C320 541 280 541 240 541C200 541 160 541 120 541C80 541 40 541 20 541L0 541Z" fill="#de3b93"></path><path d="M0 479L20 480.8C40 482.7 80 486.3 120 486.5C160 486.7 200 483.3 240 480.3C280 477.3 320 474.7 360 474C400 473.3 440 474.7 480 472.7C520 470.7 560 465.3 600 468.2C640 471 680 482 720 484.5C760 487 800 481 840 474.8C880 468.7 920 462.3 940 459.2L960 456L960 541L940 541C920 541 880 541 840 541C800 541 760 541 720 541C680 541 640 541 600 541C560 541 520 541 480 541C440 541 400 541 360 541C320 541 280 541 240 541C200 541 160 541 120 541C80 541 40 541 20 541L0 541Z" fill="#e74161"></path><path d="M0 507L20 506.3C40 505.7 80 504.3 120 503.7C160 503 200 503 240 501.8C280 500.7 320 498.3 360 497.2C400 496 440 496 480 499.7C520 503.3 560 510.7 600 511.7C640 512.7 680 507.3 720 502.3C760 497.3 800 492.7 840 494.2C880 495.7 920 503.3 940 507.2L960 511L960 541L940 541C920 541 880 541 840 541C800 541 760 541 720 541C680 541 640 541 600 541C560 541 520 541 480 541C440 541 400 541 360 541C320 541 280 541 240 541C200 541 160 541 120 541C80 541 40 541 20 541L0 541Z" fill="#d95b35"></path></svg>